<svg xmlns="http://www.w3.org/2000/svg" width="271" height="302" viewBox="0 0 271 302">
  <g id="Group_166" data-name="Group 166" transform="translate(-52 -81)">
    <g id="Rectangle_1" data-name="Rectangle 1" transform="translate(52 81)" fill="#fff" stroke="#00c5b8" stroke-width="1">
      <rect width="271" height="302" rx="15" stroke="none"/>
      <rect x="0.5" y="0.5" width="270" height="301" rx="14.5" fill="none"/>
    </g>
    <g id="Group_98" data-name="Group 98" transform="translate(52 166.593)">
      <path id="Path_67" data-name="Path 67" d="M287.167,740.162c0,2.94-26.912,3.253-60.034,5.323-33.091,2.068-60.034-2.383-60.034-5.323s27.067-8.855,60.034-5.323C260.255,738.388,287.167,737.222,287.167,740.162Z" transform="translate(-167.099 -551.146)" fill="#e6e6e6"/>
      <path id="Path_68" data-name="Path 68" d="M710.206,124.769H639.049a15.172,15.172,0,0,0-14.756,11.956L588.338,298.31a12.515,12.515,0,0,0,2.193,10.22,12.179,12.179,0,0,0,9.132,4.876l73.151,3.652A16.2,16.2,0,0,0,689.5,303.626l20.4-114.243,1.517.439,3.9-21.653-1.562-.4,5.693-31.889a9.526,9.526,0,0,0-2.042-7.759,9.264,9.264,0,0,0-7.2-3.357Z" transform="translate(-461.803 -124.769)" fill="#3f3d56"/>
      <path id="Path_69" data-name="Path 69" d="M665.558,136.395h-8.306a10.488,10.488,0,0,0-10.213,8.341L612.527,305.128a6.64,6.64,0,0,0,1.154,5.35,6.454,6.454,0,0,0,4.752,2.6l72.914,4.846a8.413,8.413,0,0,0,8.8-6.98L729.6,145.166a7.526,7.526,0,0,0-1.594-6.1,7.307,7.307,0,0,0-5.637-2.672h-7.88a3.476,3.476,0,0,0-3.348,2.6h0a3.069,3.069,0,0,1-2.956,2.3H670.776a5.263,5.263,0,0,1-5.218-4.9Z" transform="translate(-478.945 -132.957)" fill="#fff"/>
      <path id="Path_70" data-name="Path 70" d="M528.288,402.351l6.429,12.728,19.223,8.739c2.053,3.469,8.576,3.735,9.05,1.491.532-2.517-7.921-6.568-7.921-6.568L538.99,407.866l-1.407-9.362Z" transform="translate(-420.628 -316.315)" fill="#a0616a"/>
      <path id="Path_71" data-name="Path 71" d="M360.93,575.559l-1.186,9.485,6.877.474.711-9.959Z" transform="translate(-252.607 -402.841)" fill="#a0616a"/>
      <path id="Path_72" data-name="Path 72" d="M523.8,716.834a18.618,18.618,0,0,1-1.7-2.075c-.986-1.364-1.86,5.632-1.86,5.632a12.7,12.7,0,0,0-.711,4.268c.237,1.423,5.691,1.423,6.64,1.186a44.851,44.851,0,0,1,5.691,0h7.114c6.165-2.845,0-4.742,0-4.742-1.9-.237-8.3-6.165-8.3-6.165l-1.423-2.608c-.949-.237-1.9,3.32-1.9,3.32Z" transform="translate(-414.503 -536.053)" fill="#2f2e41"/>
      <path id="Path_73" data-name="Path 73" d="M300.793,575.96l-1.186,9.485,6.877.474.712-9.959Z" transform="translate(-210.379 -403.123)" fill="#a0616a"/>
      <path id="Path_74" data-name="Path 74" d="M463.668,717.235a18.621,18.621,0,0,1-1.7-2.075c-.986-1.364-1.86,5.632-1.86,5.632a11,11,0,0,0-.711,4.031c.237,1.423,5.691,1.423,6.639,1.186a38.583,38.583,0,0,1,5.691.237h7.114c6.165-2.845,0-4.742,0-4.742-1.9-.237-8.3-6.165-8.3-6.165l-1.423-2.608c-.948-.237-1.9,3.32-1.9,3.32Z" transform="translate(-372.283 -536.335)" fill="#2f2e41"/>
      <path id="Path_75" data-name="Path 75" d="M475.153,492.6c-.948,1.186-.474,5.217-.474,5.217s-1.66,13.042-.948,14.228-.474,2.134-1.186,3.794a37.877,37.877,0,0,0-1.423,5.691c-4.031,3.32-3.794,18.5-3.794,18.5L465.9,553.545c.474,1.423,7.114,1.66,8.062,1.423s3.794-21.578,3.794-21.578l6.4-12.093s-.474,32.249-.474,33.672,6.4.711,7.825.711,1.423-23.712,1.423-23.712l1.423-6.165,7.588-28.218v-3.32l-1.186-1.66S476.1,491.419,475.153,492.6Z" transform="translate(-376.835 -380.945)" fill="#2f2e41"/>
      <circle id="Ellipse_58" data-name="Ellipse 58" cx="7.351" cy="7.351" r="7.351" transform="translate(101.427 41.196)" fill="#a0616a"/>
      <path id="Path_76" data-name="Path 76" d="M521.731,298.615c-1.49,3.318-.608,7.952,2.371,13.042l-12.093-5.691,1.9-1.66-.474-4.742Z" transform="translate(-409.276 -246.484)" fill="#a0616a"/>
      <path id="Path_77" data-name="Path 77" d="M500.273,319.756a7.587,7.587,0,0,1,3.075,4.432,42,42,0,0,1,1.8,10.034l.574,10.2,7.114,27.032c-6.165,5.217-9.722,4.031-18.021-.237s-9.248,1.423-9.248,1.423-.711-.237,0-.948,0,0-.711-.711,0,0,.237-.711,0-.237-.237-.474.948-2.371.948-2.371l-1.9-17.784L481.541,324.5c2.846-3.557,10.908-6.639,10.908-6.639l7.351,5.217c2.371.948.474-2.846.474-2.846Z" transform="translate(-387.826 -259.698)" fill="#6c63ff"/>
      <path id="Path_78" data-name="Path 78" d="M466.051,391.226l-.948,14.227,12.093,17.31c0,4.031,2.134,4.98,2.134,4.98a31.341,31.341,0,0,0,2.134-4.031,4.6,4.6,0,0,0-.711-4.742l-8.3-17.547,3.557-8.774Z" transform="translate(-376.329 -311.159)" fill="#a0616a"/>
      <path id="Path_79" data-name="Path 79" d="M470.648,339.546c-4.031,1.423-4.742,16.836-4.742,16.836,4.742-2.608,10.434,1.66,10.434,1.66s1.186-4.031,2.608-9.248a9.062,9.062,0,0,0-1.9-8.536S474.679,338.124,470.648,339.546Z" transform="translate(-376.901 -274.769)" fill="#6c63ff"/>
      <path id="Path_80" data-name="Path 80" d="M506.924,264.909c.936-.749,2.212.612,2.212.612l.749-6.738a26.71,26.71,0,0,0,7.674-.187c2.995-.749,3.463,2.714,3.463,2.714a24.03,24.03,0,0,0,.094-4.211c-.187-1.684-2.62-3.369-6.925-4.492s-6.551,3.743-6.551,3.743C504.645,257.848,505.988,265.658,506.924,264.909Z" transform="translate(-404.906 -214.155)" fill="#2f2e41"/>
      <path id="Path_81" data-name="Path 81" d="M746.677,293.507a.6.6,0,0,0,.611-.484l16.35-88.991a.592.592,0,0,0-.575-.7l-74.384-.867h-.007a.594.594,0,0,0-.577.462l-19.274,86.1a.591.591,0,0,0,.548.72Z" transform="translate(-518.685 -179.489)" fill="#e6e6e6"/>
      <path id="Path_82" data-name="Path 82" d="M710.89,529.535a.3.3,0,0,0-.288.229l-.687,2.944a.3.3,0,0,0,.267.362l38.809,2.758a.3.3,0,0,0,.311-.239l.661-3.406a.3.3,0,0,0-.273-.352l-38.783-2.3Z" transform="translate(-548.081 -408.22)" fill="#e6e6e6"/>
      <path id="Path_83" data-name="Path 83" d="M753.913,570.017a.3.3,0,0,0,.311-.224l.841-3.414a.3.3,0,0,0-.267-.366l-49.561-3.466a.292.292,0,0,0-.3.211l-.874,2.95a.3.3,0,0,0,.26.379Z" transform="translate(-543.898 -431.326)" fill="#e6e6e6"/>
      <path id="Path_84" data-name="Path 84" d="M744.913,607.017a.3.3,0,0,0,.311-.224l.841-3.414a.3.3,0,0,0-.267-.366l-49.561-3.466a.293.293,0,0,0-.3.211l-.874,2.95a.3.3,0,0,0,.26.379Z" transform="translate(-537.583 -457.235)" fill="#e6e6e6"/>
      <path id="Path_85" data-name="Path 85" d="M713.985,663.842a.292.292,0,0,0,.315-.223l1.778-7.113a.3.3,0,0,0-.262-.367l-30.436-2.56a.3.3,0,0,0-.313.23l-1.517,6.826a.3.3,0,0,0,.261.359Z" transform="translate(-529.618 -494.686)" fill="#6c63ff"/>
    </g>
  </g>
</svg>
