<svg xmlns="http://www.w3.org/2000/svg" width="17" height="15" viewBox="0 0 17 15">
  <g id="Group_179" data-name="Group 179" transform="translate(-55.5 -473.308)">
    <g id="Group_153" data-name="Group 153" transform="translate(55.449 473.296)">
      <ellipse id="Ellipse_6" data-name="Ellipse 6" cx="8.5" cy="7.5" rx="8.5" ry="7.5" transform="translate(0.051 0.012)" fill="#00c5b8"/>
    </g>
    <g id="_1906461" data-name="1906461" transform="translate(59.99 477.49)">
      <path id="Path_21" data-name="Path 21" d="M22.511,40.249a.494.494,0,0,1,.151-.352.513.513,0,0,1,.361-.144h1.134V37H17v4.351h5.511Zm-2.314-.39a.1.1,0,0,1,.02.143.105.105,0,0,1-.146.02l-.905-.671a.1.1,0,0,1,0-.163l.905-.671a.105.105,0,0,1,.146.02.1.1,0,0,1-.02.143l-.8.59Zm.636-1.57-.309,2a.1.1,0,0,1-.118.086.1.1,0,0,1-.087-.116l.309-2a.1.1,0,0,1,.118-.086.1.1,0,0,1,.087.116Zm1.152,1.062-.905.671a.105.105,0,0,1-.146-.02.1.1,0,0,1,.02-.143l.8-.59-.8-.59a.1.1,0,0,1-.02-.143.105.105,0,0,1,.146-.02l.905.671a.1.1,0,0,1,0,.163Z" transform="translate(-17 -37)" fill="#fff"/>
      <path id="Path_22" data-name="Path 22" d="M347,432.439a.294.294,0,0,0,.3.291h1.919a.294.294,0,0,0,.3-.291V432H347Zm1.258-.382a.311.311,0,1,1-.311.311A.311.311,0,0,1,348.258,432.057Z" transform="translate(-341.253 -425.286)" fill="#fff"/>
      <path id="Path_23" data-name="Path 23" d="M414.813,447.586a.107.107,0,1,0-.107-.107A.107.107,0,0,0,414.813,447.586Z" transform="translate(-407.809 -440.397)" fill="#fff"/>
      <path id="Path_24" data-name="Path 24" d="M17,305h5.405v.986H17Z" transform="translate(-17 -300.445)" fill="#fff"/>
      <path id="Path_25" data-name="Path 25" d="M349.217,211H347.3a.294.294,0,0,0-.3.292v.286h2.516v-.286a.294.294,0,0,0-.3-.292Zm-.62.357h-.679a.1.1,0,0,1,0-.2h.679a.1.1,0,0,1,0,.2Z" transform="translate(-341.253 -208.04)" fill="#fff"/>
      <path id="Path_26" data-name="Path 26" d="M347,257.613v2.157h2.516V257H347Zm.753-.341h1.557a.1.1,0,1,1,0,.2h-1.557a.1.1,0,1,1,0-.2Zm0,.493h1.557a.1.1,0,1,1,0,.2h-1.557a.1.1,0,1,1,0-.2Zm0,.51h1.557a.1.1,0,1,1,0,.2h-1.557a.1.1,0,1,1,0-.2Zm0,.51h1.557a.1.1,0,1,1,0,.2h-1.557a.1.1,0,1,1,0-.2Zm0,.51h1.557a.1.1,0,1,1,0,.2h-1.557a.1.1,0,1,1,0-.2Zm-.548-2.023h.228a.1.1,0,0,1,0,.2h-.228a.1.1,0,1,1,0-.2Zm0,.493h.228a.1.1,0,0,1,0,.2h-.228a.1.1,0,1,1,0-.2Zm0,.51h.228a.1.1,0,0,1,0,.2h-.228a.1.1,0,0,1,0-.2Zm0,.51h.228a.1.1,0,0,1,0,.2h-.228a.1.1,0,1,1,0-.2Zm0,.51h.228a.1.1,0,0,1,0,.2h-.228a.1.1,0,1,1,0-.2Z" transform="translate(-341.253 -253.261)" fill="#fff"/>
      <path id="Path_27" data-name="Path 27" d="M114.673,376.02a.1.1,0,0,0-.1-.1H113.9L113.64,375h-1.758l-.258.918h-.672a.1.1,0,1,0,0,.2h3.62A.1.1,0,0,0,114.673,376.02Z" transform="translate(-109.203 -369.255)" fill="#fff"/>
    </g>
  </g>
</svg>
