<svg xmlns="http://www.w3.org/2000/svg" width="17" height="16" viewBox="0 0 17 16">
  <g id="Group_178" data-name="Group 178" transform="translate(-55.5 -443.308)">
    <g id="Group_177" data-name="Group 177">
      <g id="Group_152" data-name="Group 152" transform="translate(55.449 443.756)">
        <ellipse id="Ellipse_6" data-name="Ellipse 6" cx="8.5" cy="8" rx="8.5" ry="8" transform="translate(0.051 -0.447)" fill="#00c5b8"/>
      </g>
      <g id="_711748" data-name="711748" transform="translate(59.103 446.948)">
        <g id="Group_14" data-name="Group 14" transform="translate(0 0)">
          <path id="Path_20" data-name="Path 20" d="M9.757,5.845A.2.2,0,0,0,9.6,5.689a.237.237,0,0,0-.212.06L8.274,6.9l-.953-.324-.294-.9L8.18,4.514A.238.238,0,0,0,8.239,4.3a.231.231,0,0,0-.129-.168A2.741,2.741,0,0,0,7.026,3.9a2.89,2.89,0,0,0-2.083.863,2.986,2.986,0,0,0-.871,2.1,2.892,2.892,0,0,0,.106.779L.388,11.526a1.393,1.393,0,0,0,0,1.93,1.312,1.312,0,0,0,.953.4,1.362,1.362,0,0,0,.953-.4L6.014,9.668a2.843,2.843,0,0,0,1,.18h.012a2.91,2.91,0,0,0,2.083-.863A3.024,3.024,0,0,0,9.757,5.845ZM1.812,12.88a.6.6,0,0,1-.894,0,.631.631,0,0,1,0-.911.624.624,0,0,1,.894,0A.664.664,0,0,1,1.812,12.88Z" transform="translate(0 -3.903)" fill="#fff"/>
        </g>
      </g>
    </g>
  </g>
</svg>
